<svg xmlns="http://www.w3.org/2000/svg" height="40" viewBox="0 -960 960 960" width="40"><path d="M480-512.769q-56.475 0-94.032-37.557-37.558-37.558-37.558-94.033 0-56.987 37.558-94.288 37.557-37.301 94.032-37.301 56.475 0 94.032 37.301 37.558 37.301 37.558 94.288 0 56.475-37.558 94.033-37.557 37.557-94.032 37.557ZM180-175.052v-80.845q0-30.231 16.369-54.356 16.368-24.124 43.323-37.491 61.077-28.82 121.067-43.153 59.99-14.334 119.179-14.334 59.19 0 119.164 14.411 59.975 14.41 121.052 43.076 27.109 13.367 43.477 37.491Q780-286.128 780-255.897v80.845H180Z" fill="#fff"/></svg>