<svg xmlns="http://www.w3.org/2000/svg" height="40" viewBox="0 -960 960 960" width="40"><path d="M322.718-186.564q-20.923 0-36.051-15.128-15.128-15.128-15.128-36.051v-91.18h117.743v-129.333q-38.23 5.282-78.128-5.552-39.897-10.833-65.359-37.884v-55.18h-54.41L69.025-681.077q39.796-30.154 85.513-49.256 45.718-19.103 95.206-19.103 37.846 0 72.077 10.039 34.231 10.038 67.461 32.936v-73.129H820v500.052q0 38.564-27.205 65.769-27.205 27.205-65.256 27.205H322.718Zm117.744-142.359h245.282v49.385q0 17.974 11.91 29.884 11.91 11.911 29.885 11.911 17.461 0 29.371-11.911 11.911-11.91 11.911-29.884V-728.41H440.462v58.205l230.82 230.821v36.256h-36.256l-124.59-122.077-20.205 20.667q-12.026 14.179-23.821 21.218-11.795 7.038-25.948 12.525v141.872ZM213.026-608.051h83.948v82.769q17.898 11.923 34.821 16.859 16.923 4.936 33.538 4.936 25.59 0 51.039-12.59t38.705-27.154l19.436-19.897-68.564-68.564q-32.385-32.898-72.359-49.731-39.975-16.834-83.846-16.834-28.334 0-53.334 7.09-25 7.09-47.128 18.859l63.744 64.257Z"/></svg>