<svg xmlns="http://www.w3.org/2000/svg" height="40" viewBox="0 -960 960 960" width="40"><path d="M111.531-253.333q-25.275 0-43.07-17.854-17.794-17.854-17.794-43.462 0-26.12 17.93-43.325 17.93-17.205 42.624-17.205 7.24 0 13.997 1.153 6.756 1.154 13.5 4.283l205.795-205.795q-3.795-6.744-5.282-12.7-1.487-5.957-1.487-13.669 0-25.51 17.854-42.929 17.853-17.42 43.461-17.42 26.121 0 43.326 17.607 17.205 17.608 17.205 43.381 0 5.012-5.231 25.169l121.66 120.74q6.69-2.769 12.63-4 5.94-1.231 12.748-1.231 6.808 0 13.18 1.321 6.372 1.32 12.301 5.115l166.045-166q-3.461-5.911-4.449-12.227-.987-6.315-.987-13.685 0-25.919 17.854-43.26 17.854-17.341 43.462-17.341 26.12 0 43.325 17.344 17.205 17.343 17.205 43.638 0 25.275-17.461 43.07-17.461 17.794-43.028 17.794-7.305 0-13.677-.987t-12.346-4.449L656.82-424.256q3.462 5.974 4.449 12.251.987 6.277.987 13.596 0 25.127-17.343 42.896-17.343 17.769-43.639 17.769-25.274 0-43.069-17.769t-17.795-42.896q0-7.319 1.487-13.902 1.488-6.582 5.283-13.269l-121.555-121.6q-6.686 3.808-13.39 5.295-6.704 1.487-13.673 1.487-4.886 0-25.305-5.243L168.615-339.846q2.103 6.744 3 12.731.898 5.987.898 13.227 0 24.694-17.344 42.624-17.343 17.931-43.638 17.931Z"/></svg>