<svg xmlns="http://www.w3.org/2000/svg" height="40" viewBox="0 -960 960 960" width="40"><path fill="#87cc0f" d="M222.462-164.103q-24.18 0-41.27-17.089-17.089-17.09-17.089-41.27 0-24.179 17.089-41.269 17.09-17.089 41.27-17.089 24.179 0 41.269 17.089 17.089 17.09 17.089 41.269 0 24.18-17.089 41.27-17.09 17.089-41.269 17.089Zm257.538 0q-24.179 0-41.269-17.089-17.09-17.09-17.09-41.27 0-24.179 17.09-41.269Q455.821-280.82 480-280.82t41.269 17.089q17.09 17.09 17.09 41.269 0 24.18-17.09 41.27-17.09 17.089-41.269 17.089Zm257.538 0q-24.179 0-41.269-17.089-17.089-17.09-17.089-41.27 0-24.179 17.089-41.269 17.09-17.089 41.269-17.089 24.18 0 41.269 17.089 17.09 17.09 17.09 41.269 0 24.18-17.09 41.27-17.089 17.089-41.269 17.089ZM222.462-421.641q-24.18 0-41.27-17.09-17.089-17.09-17.089-41.269t17.089-41.269q17.09-17.09 41.27-17.09 24.179 0 41.269 17.09Q280.82-504.179 280.82-480t-17.089 41.269q-17.09 17.09-41.269 17.09Zm257.538 0q-24.179 0-41.269-17.09T421.641-480q0-24.179 17.09-41.269T480-538.359q24.179 0 41.269 17.09T538.359-480q0 24.179-17.09 41.269T480-421.641Zm257.538 0q-24.179 0-41.269-17.09Q679.18-455.821 679.18-480t17.089-41.269q17.09-17.09 41.269-17.09 24.18 0 41.269 17.09 17.09 17.09 17.09 41.269t-17.09 41.269q-17.089 17.09-41.269 17.09ZM222.462-679.18q-24.18 0-41.27-17.089-17.089-17.09-17.089-41.269 0-24.18 17.089-41.269 17.09-17.09 41.27-17.09 24.179 0 41.269 17.09 17.089 17.089 17.089 41.269 0 24.179-17.089 41.269-17.09 17.089-41.269 17.089Zm257.538 0q-24.179 0-41.269-17.089-17.09-17.09-17.09-41.269 0-24.18 17.09-41.269 17.09-17.09 41.269-17.09t41.269 17.09q17.09 17.089 17.09 41.269 0 24.179-17.09 41.269Q504.179-679.18 480-679.18Zm257.538 0q-24.179 0-41.269-17.089-17.089-17.09-17.089-41.269 0-24.18 17.089-41.269 17.09-17.09 41.269-17.09 24.18 0 41.269 17.09 17.09 17.089 17.09 41.269 0 24.179-17.09 41.269-17.089 17.089-41.269 17.089Z"/></svg>