<svg xmlns="http://www.w3.org/2000/svg" height="40" viewBox="0 -960 960 960" width="40"><path fill="#9fafc1" d="m356.769-501.436 86.847-85.923-71.821-70.898-50.103 50.616-36.102-36.103 51.538-50.102-81.641-80.488-85.923 85.923 187.205 186.975Zm330.385 331.103 85.923-86.077-79.308-80.308-50.102 51.538-36.103-36.102 50.359-50.103-69.462-70.897-86.179 86.846 184.872 185.103ZM600.103-673.59l74.615 75.128 88.846-88.846L688.872-762l-88.769 88.41ZM285.949-138.667H138.667v-147.282l182.769-182.769-222.77-220.693L255.82-846.718l223.693 222.77 188.282-188.026q5.641-5.641 11.321-7.5 5.679-1.859 12.371-1.859 5.513 0 11.859 1.859 6.347 1.859 11.654 7.5l98.641 102.025q5.308 5.641 7.282 11.321 1.974 5.679 1.974 11.859 0 6.692-2.474 12.615t-7.115 10.564L626.897-478.18l219.821 221.693L690.077-98.821 468.872-321.59 285.949-138.667Z"/></svg>