<svg xmlns="http://www.w3.org/2000/svg" height="40" viewBox="0 -960 960 960" width="40"><path fill="#9fafc1" d="M130.333-508.205 283.59-662.462q14.359-14.359 34.179-20.538 19.821-6.18 39.974-1.949l71.231 14.077q-44.436 52.949-76.884 102.808-32.449 49.859-70.346 124.089l-151.411-64.23Zm192.026 70.692q37.051-68.615 79.205-129.346 42.153-60.731 85.128-103.705 71.923-71.923 157.923-108.103 86-36.179 189.18-33.385 2.128 103.18-34.103 188.68-36.23 85.5-108.154 157.424-41.564 41.564-102.948 83.41-61.385 41.846-130.334 79.897L322.359-437.513Zm260.846-125.385q14.974 14.975 35.885 14.975 20.91 0 35.884-14.975 14.975-14.307 14.975-35.166 0-20.859-14.975-35.834Q640-648.205 619.09-648.205q-20.911 0-35.885 14.307-14.974 14.975-14.974 35.834t14.974 35.166ZM526.641-109.59 463.179-261q74.231-37.897 123.372-70.897 49.141-33 103.269-78.103l14 71.231q3.565 20.82-2.23 40.256t-20.154 33.795L526.641-109.59ZM188.18-294.154q26.128-26.128 63.089-25.859 36.962.269 63.09 26.397 26.128 26.129 25.962 63.09-.167 36.962-26.295 63.09-22.539 22.538-68.026 38.423-45.487 15.885-117.59 20.577 4.693-72.103 20.962-117.641 16.269-45.539 38.808-68.077Z"/></svg>